<svg width="26" height="26" viewBox="0 0 26 26" fill="none" xmlns="http://www.w3.org/2000/svg">
<path d="M18.2021 23.3068C17.921 23.3068 17.6382 23.2389 17.3777 23.1022L12.6786 20.6306L7.9322 23.1014C7.64018 23.2566 7.31028 23.3263 6.98042 23.3024C6.65056 23.2786 6.33413 23.1621 6.06752 22.9664C5.79916 22.7733 5.59072 22.5083 5.46618 22.202C5.34163 21.8958 5.30601 21.5606 5.36343 21.235L6.26095 16.0029L2.44477 12.252C2.20685 12.0222 2.0386 11.7298 1.95937 11.4087C1.88014 11.0875 1.89314 10.7505 1.99687 10.4363C2.0981 10.1217 2.28589 9.84194 2.53873 9.62908C2.79158 9.41623 3.09926 9.27887 3.42654 9.23276L8.67928 8.46935L11.0675 3.68085C11.3684 3.07218 11.9762 2.69478 12.6554 2.69478C13.3345 2.69478 13.9423 3.07218 14.2432 3.68085L16.5928 8.44098L21.8842 9.23276C22.2115 9.27887 22.5191 9.41623 22.772 9.62908C23.0248 9.84194 23.2126 10.1217 23.3139 10.4363C23.4172 10.7505 23.43 11.0874 23.3508 11.4085C23.2715 11.7296 23.1035 12.0219 22.866 12.252L19.0644 15.9573L19.9473 21.2358C20.0042 21.5614 19.9683 21.8964 19.8438 22.2026C19.7193 22.5088 19.5112 22.7738 19.2432 22.9672C18.9405 23.1871 18.5762 23.3059 18.2021 23.3068ZM3.64404 11.0209L7.44475 14.7262C7.8617 15.1337 8.05256 15.7183 7.95455 16.2926L7.05789 21.5255L7.53244 22.3405L7.13182 21.5797L11.8301 19.1089C12.0842 18.9754 12.3669 18.9056 12.654 18.9055C12.941 18.9053 13.2238 18.9748 13.4781 19.1081L18.1772 21.5797L18.2511 21.5255L17.3536 16.2934C17.3054 16.0105 17.3265 15.7201 17.4151 15.4472C17.5038 15.1742 17.6573 14.9268 17.8625 14.7262L21.6641 11.0209L21.6357 10.9324L16.383 10.169C16.0989 10.1274 15.8292 10.0175 15.597 9.84874C15.3647 9.67999 15.1769 9.4574 15.0496 9.20009L12.7001 4.43996C12.6932 4.4262 12.6855 4.41245 12.6536 4.41245L10.2577 9.20009C10.1308 9.45736 9.94328 9.67996 9.71131 9.84873C9.47934 10.0175 9.20985 10.1274 8.92601 10.169L3.67155 10.9324L3.04311 11.6356L3.64404 11.0209Z" fill="#979797"/>
</svg>
